<?xml version="1.0" standalone="no"?>
<!DOCTYPE svg PUBLIC "-//W3C//DTD SVG 20010904//EN"
 "http://www.w3.org/TR/2001/REC-SVG-20010904/DTD/svg10.dtd">
<svg version="1.0" xmlns="http://www.w3.org/2000/svg"
 width="512.000000pt" height="512.000000pt" viewBox="0 0 512.000000 512.000000"
 preserveAspectRatio="xMidYMid meet">

<g transform="translate(0.000000,512.000000) scale(0.100000,-0.100000)"
fill="#000000" stroke="none">
<path d="M3225 4263 c-18 -5 -957 -389 -2298 -939 -246 -101 -466 -193 -488
-204 -73 -38 -126 -139 -117 -225 4 -33 591 -1483 633 -1565 20 -37 75 -87
117 -104 62 -26 132 -20 228 19 47 19 86 35 88 35 1 0 2 -46 2 -103 0 -136 18
-195 75 -252 80 -80 -37 -75 1630 -75 1634 0 1546 -3 1621 62 19 17 45 50 57
72 l22 41 3 845 c2 766 1 849 -14 889 -21 55 -66 106 -118 134 -39 21 -54 22
-363 25 -238 2 -322 6 -326 15 -63 158 -489 1192 -500 1213 -19 36 -62 77
-103 97 -34 17 -118 29 -149 20z m79 -164 c31 -15 123 -219 103 -230 -7 -4
-462 -191 -1012 -417 -550 -225 -1178 -483 -1395 -572 -217 -89 -405 -166
-417 -170 -20 -8 -24 -1 -62 93 -23 56 -41 110 -41 119 0 50 -65 22 2655 1134
72 30 133 54 137 54 4 0 18 -5 32 -11z m197 -425 c11 -26 18 -48 17 -49 -2 -2
-389 -161 -860 -354 l-857 -351 -94 0 c-53 0 -115 -6 -143 -15 -56 -16 -114
-63 -141 -114 -17 -31 -40 -42 -368 -178 -193 -79 -359 -146 -370 -149 -16 -4
-25 3 -38 31 -9 20 -17 41 -17 49 0 7 51 33 112 58 117 47 2571 1053 2668
1094 30 13 59 23 63 24 4 0 17 -21 28 -46z m195 -477 l111 -272 -388 -3 c-213
-1 -567 -1 -785 0 l-398 3 659 272 c363 149 667 272 675 272 10 1 48 -81 126
-272z m897 -448 c14 -6 30 -22 36 -36 8 -17 11 -207 11 -628 l0 -605 -1545 0
-1545 0 0 611 0 611 29 29 29 29 1481 0 c1063 0 1487 -3 1504 -11z m-3203
-732 l0 -563 -102 -42 c-113 -46 -149 -51 -176 -24 -18 18 -388 909 -380 917
3 3 636 268 656 274 1 1 2 -252 2 -562z m3250 -823 l0 -126 -29 -29 -30 -29
-1490 2 -1490 3 -23 23 c-21 21 -23 33 -26 152 l-4 130 1546 0 1546 0 0 -126z"/>
<path d="M1846 2645 c-51 -18 -94 -60 -106 -104 -13 -47 -13 -336 0 -383 15
-51 77 -105 132 -113 24 -4 142 -5 263 -3 209 3 222 4 257 26 67 41 78 82 78
280 0 189 -6 217 -56 264 -16 14 -47 31 -69 37 -61 16 -450 14 -499 -4z m462
-297 l3 -148 -211 0 -210 0 0 143 c0 79 3 147 7 151 4 3 97 5 207 4 l201 -3 3
-147z"/>
</g>
</svg>
